<svg width="1130" height="348" viewBox="0 0 1130 348" fill="none" xmlns="http://www.w3.org/2000/svg">
<rect width="1130" height="348" rx="4" fill="#151515"/>
<rect width="50" height="50" transform="translate(536 224)" fill="#E0B81F"/>
<rect width="50" height="50" transform="translate(486 274)" fill="#1939C6"/>
<rect width="50" height="50" transform="translate(322 56)" fill="#DF641D"/>
<rect width="50" height="50" transform="translate(372 104)" fill="#FA5FB4"/>
<rect width="50" height="50" transform="translate(702 163)" fill="#591006"/>
<rect width="50" height="50" transform="translate(702 113)" fill="#96D7FF"/>
<rect width="50" height="50" transform="matrix(0 1 -1 0 947 213)" fill="#FF6670"/>
<rect width="50" height="50" transform="matrix(0 1 -1 0 897 213)" fill="#405416"/>
<rect width="50" height="50" transform="matrix(0 1 -1 0 347 238)" fill="#380B1A"/>
<rect width="50" height="50" transform="matrix(0 1 -1 0 297 238)" fill="#98B0FE"/>
<path d="M173.512 229.496V212.144H176.224L176.416 213.944C177.136 212.576 178.696 211.784 180.496 211.784C183.832 211.784 186.04 214.208 186.04 217.928C186.04 221.624 184.024 224.312 180.496 224.312C178.72 224.312 177.184 223.616 176.44 222.416V229.496H173.512ZM176.464 218.072C176.464 220.208 177.784 221.672 179.8 221.672C181.864 221.672 183.088 220.184 183.088 218.072C183.088 215.96 181.864 214.448 179.8 214.448C177.784 214.448 176.464 215.936 176.464 218.072ZM191.323 224H188.419V206.144H191.323V224ZM197.923 224.312C195.403 224.312 193.867 222.848 193.867 220.616C193.867 218.432 195.451 217.064 198.259 216.848L201.811 216.584V216.32C201.811 214.712 200.851 214.064 199.363 214.064C197.635 214.064 196.675 214.784 196.675 216.032H194.179C194.179 213.464 196.291 211.784 199.507 211.784C202.699 211.784 204.667 213.512 204.667 216.8V224H202.099L201.883 222.248C201.379 223.472 199.771 224.312 197.923 224.312ZM198.883 222.104C200.683 222.104 201.835 221.024 201.835 219.2V218.576L199.363 218.768C197.539 218.936 196.843 219.536 196.843 220.496C196.843 221.576 197.563 222.104 198.883 222.104ZM211.411 224H208.483V214.592H206.203V212.144H208.483V208.448H211.411V212.144H213.715V214.592H211.411V224ZM220.722 224.312C217.194 224.312 214.722 221.744 214.722 218.072C214.722 214.352 217.146 211.784 220.626 211.784C224.178 211.784 226.434 214.16 226.434 217.856V218.744L217.506 218.768C217.722 220.856 218.826 221.912 220.77 221.912C222.378 221.912 223.434 221.288 223.77 220.16H226.482C225.978 222.752 223.818 224.312 220.722 224.312ZM220.65 214.184C218.922 214.184 217.866 215.12 217.578 216.896H223.53C223.53 215.264 222.402 214.184 220.65 214.184ZM230.019 224.288C228.963 224.288 228.075 223.424 228.075 222.392C228.075 221.336 228.963 220.472 230.019 220.472C231.075 220.472 231.963 221.336 231.963 222.392C231.963 223.424 231.075 224.288 230.019 224.288ZM244.432 224H241.504V212.144H244.192L244.432 213.536C245.032 212.552 246.232 211.784 247.936 211.784C249.736 211.784 250.984 212.672 251.608 214.04C252.208 212.672 253.6 211.784 255.4 211.784C258.28 211.784 259.864 213.512 259.864 216.248V224H256.96V217.016C256.96 215.312 256.048 214.424 254.656 214.424C253.24 214.424 252.16 215.336 252.16 217.28V224H249.232V216.992C249.232 215.336 248.344 214.448 246.952 214.448C245.56 214.448 244.432 215.36 244.432 217.28V224ZM266.267 224.312C263.747 224.312 262.211 222.848 262.211 220.616C262.211 218.432 263.795 217.064 266.603 216.848L270.155 216.584V216.32C270.155 214.712 269.195 214.064 267.707 214.064C265.979 214.064 265.019 214.784 265.019 216.032H262.523C262.523 213.464 264.635 211.784 267.851 211.784C271.043 211.784 273.011 213.512 273.011 216.8V224H270.443L270.227 222.248C269.723 223.472 268.115 224.312 266.267 224.312ZM267.227 222.104C269.027 222.104 270.179 221.024 270.179 219.2V218.576L267.707 218.768C265.883 218.936 265.187 219.536 265.187 220.496C265.187 221.576 265.907 222.104 267.227 222.104ZM275.215 217.808C275.215 214.352 277.471 211.76 280.855 211.76C282.631 211.76 284.023 212.504 284.719 213.776L284.887 212.144H287.599V223.4C287.599 227.36 285.223 229.832 281.383 229.832C277.975 229.832 275.647 227.888 275.287 224.72H278.215C278.407 226.256 279.583 227.168 281.383 227.168C283.399 227.168 284.695 225.896 284.695 223.928V221.96C283.951 223.064 282.487 223.76 280.783 223.76C277.423 223.76 275.215 221.24 275.215 217.808ZM278.167 217.736C278.167 219.728 279.439 221.216 281.359 221.216C283.375 221.216 284.623 219.8 284.623 217.736C284.623 215.72 283.399 214.328 281.359 214.328C279.415 214.328 278.167 215.792 278.167 217.736ZM294.157 224.312C291.637 224.312 290.101 222.848 290.101 220.616C290.101 218.432 291.685 217.064 294.493 216.848L298.045 216.584V216.32C298.045 214.712 297.085 214.064 295.597 214.064C293.869 214.064 292.909 214.784 292.909 216.032H290.413C290.413 213.464 292.525 211.784 295.741 211.784C298.933 211.784 300.901 213.512 300.901 216.8V224H298.333L298.117 222.248C297.613 223.472 296.005 224.312 294.157 224.312ZM295.117 222.104C296.917 222.104 298.069 221.024 298.069 219.2V218.576L295.597 218.768C293.773 218.936 293.077 219.536 293.077 220.496C293.077 221.576 293.797 222.104 295.117 222.104ZM312.73 224H303.154V221.6L309.058 214.592H303.154V212.144H312.73V214.568L306.73 221.552H312.73V224ZM316.585 209.768C315.577 209.768 314.785 208.976 314.785 207.992C314.785 207.008 315.577 206.24 316.585 206.24C317.545 206.24 318.337 207.008 318.337 207.992C318.337 208.976 317.545 209.768 316.585 209.768ZM315.121 224V212.144H318.049V224H315.121ZM324.003 224H321.075V212.144H323.787L324.027 213.68C324.771 212.48 326.211 211.784 327.819 211.784C330.795 211.784 332.331 213.632 332.331 216.704V224H329.403V217.4C329.403 215.408 328.419 214.448 326.907 214.448C325.107 214.448 324.003 215.696 324.003 217.616V224ZM340.511 224.312C336.983 224.312 334.511 221.744 334.511 218.072C334.511 214.352 336.935 211.784 340.415 211.784C343.967 211.784 346.223 214.16 346.223 217.856V218.744L337.295 218.768C337.511 220.856 338.615 221.912 340.559 221.912C342.167 221.912 343.223 221.288 343.559 220.16H346.271C345.767 222.752 343.607 224.312 340.511 224.312ZM340.439 214.184C338.711 214.184 337.655 215.12 337.367 216.896H343.319C343.319 215.264 342.191 214.184 340.439 214.184Z" fill="white"/>
<path d="M679.68 291.34V295.12H684V296.88H672.34V291.64C672.34 290.507 672.647 289.607 673.26 288.94C673.873 288.26 674.787 287.92 676 287.92C676.787 287.92 677.453 288.073 678 288.38C678.547 288.687 678.967 289.1 679.26 289.62C679.54 290.14 679.68 290.713 679.68 291.34ZM673.86 295.12H678.18V291.88C678.18 291.2 677.993 290.673 677.62 290.3C677.233 289.913 676.7 289.72 676.02 289.72C675.327 289.72 674.793 289.907 674.42 290.28C674.047 290.653 673.86 291.187 673.86 291.88V295.12ZM684 284.337H672.34V282.577H682.48V276.077H684V284.337ZM684 271.453V273.293L672.34 269.133V266.993L684 262.913V264.833L680.84 265.893V270.353L684 271.453ZM679.36 269.853V266.393L674.28 268.093L679.36 269.853ZM673.86 250.73V254.85H684V256.61H673.86V260.73H672.34V250.73H673.86ZM678.78 239.547V245.667H682.48V238.947H684V247.427H672.34V239.247H673.86V245.667H677.26V239.547H678.78ZM681.28 232.364V229.644H684V232.364H681.28ZM684 211.417H672.34V209.037L682.32 206.237L672.34 203.517V201.137H684V202.697H674.46L684 205.357V207.157L674.46 209.857H684V211.417ZM684 197.274V199.114L672.34 194.954V192.814L684 188.734V190.654L680.84 191.714V196.174L684 197.274ZM679.36 195.674V192.214L674.28 193.914L679.36 195.674ZM684.2 181.43C684.2 182.55 683.92 183.504 683.36 184.29C682.8 185.064 682.067 185.657 681.16 186.07C680.24 186.47 679.253 186.67 678.2 186.67C677.04 186.67 676.007 186.457 675.1 186.03C674.18 185.59 673.46 184.964 672.94 184.15C672.407 183.337 672.14 182.37 672.14 181.25C672.14 180.024 672.453 178.977 673.08 178.11C673.707 177.23 674.627 176.704 675.84 176.53V178.27C675.12 178.444 674.58 178.804 674.22 179.35C673.86 179.884 673.68 180.524 673.68 181.27C673.68 182.057 673.88 182.724 674.28 183.27C674.68 183.804 675.22 184.21 675.9 184.49C676.567 184.77 677.313 184.91 678.14 184.91C678.953 184.91 679.713 184.77 680.42 184.49C681.113 184.21 681.673 183.797 682.1 183.25C682.527 182.69 682.74 182.004 682.74 181.19C682.74 180.604 682.607 180.064 682.34 179.57C682.06 179.077 681.68 178.684 681.2 178.39C680.72 178.084 680.167 177.93 679.54 177.93H679.32V181.01H677.8V176.41H684V177.65L682.3 177.85C682.967 178.277 683.453 178.79 683.76 179.39C684.053 179.99 684.2 180.67 684.2 181.43ZM684 172.547V174.387L672.34 170.227V168.087L684 164.007V165.927L680.84 166.987V171.447L684 172.547ZM679.36 170.947V167.487L674.28 169.187L679.36 170.947ZM684 161.244H682.48L673.86 154.464V160.924H672.34V152.424H673.88L682.48 159.164V152.404H684V161.244ZM684 148.081H682.52V145.321H673.82V148.081H672.34V140.841H673.82V143.621H682.52V140.841H684V148.081ZM684 136.697H672.34V134.917L681.4 129.117H672.34V127.497H684V129.297L674.96 135.077H684V136.697ZM678.78 115.914V122.034H682.48V115.314H684V123.794H672.34V115.614H673.86V122.034H677.26V115.914H678.78Z" fill="white"/>
<path d="M436.024 29.362V26.576L433 25.932V24.7L441.162 26.436V29.81C441.162 30.51 440.943 31.07 440.504 31.49C440.075 31.9193 439.515 32.134 438.824 32.134C437.975 32.134 437.293 31.882 436.78 31.378C436.276 30.874 436.024 30.202 436.024 29.362ZM440.098 27.444L437.074 26.8V29.18C437.074 29.6933 437.214 30.1087 437.494 30.426C437.774 30.7433 438.217 30.902 438.824 30.902C439.225 30.902 439.538 30.776 439.762 30.524C439.986 30.2813 440.098 29.9547 440.098 29.544V27.444ZM433 33.4803L441.162 35.2163V36.4483L434.064 34.9363V39.4863L433 39.2623V33.4803ZM433 42.5546V41.2106L441.162 45.8586V47.3566L433 48.4766V47.1886L435.212 46.9226V43.8006L433 42.5546ZM436.248 44.3746V46.7966L439.804 46.3626L436.248 44.3746ZM440.098 58.5169V55.6329L433 54.1209V52.8889L440.098 54.4009V51.5169L441.162 51.7409V58.7409L440.098 58.5169ZM436.654 65.6172V61.3332L434.064 60.7732V65.4772L433 65.2532V59.3172L441.162 61.0532V66.7792L440.098 66.5552V62.0612L437.718 61.5572V65.8412L436.654 65.6172ZM434.904 70.2675V72.1715L433 71.7655V69.8615L434.904 70.2675ZM433 84.5241L441.162 86.2601V87.8701L434.176 88.3461L441.162 91.7341V93.4561L433 91.7201V90.6281L439.678 92.0561L433 88.7661V87.5061L439.678 87.0441L433 85.6161V84.5241ZM433 94.4804V93.1364L441.162 97.7844V99.2824L433 100.402V99.1144L435.212 98.8484V95.7264L433 94.4804ZM436.248 96.3004V98.7224L439.804 98.2884L436.248 96.3004ZM432.86 105.921C432.86 105.379 432.963 104.908 433.168 104.507C433.383 104.105 433.663 103.769 434.008 103.499C434.363 103.237 434.75 103.041 435.17 102.911C435.59 102.789 436.01 102.729 436.43 102.729C437.363 102.729 438.194 102.906 438.922 103.261C439.659 103.615 440.238 104.115 440.658 104.759C441.087 105.403 441.302 106.154 441.302 107.013C441.302 107.899 441.069 108.623 440.602 109.183C440.145 109.743 439.533 110.065 438.768 110.149V108.931C439.225 108.837 439.58 108.627 439.832 108.301C440.093 107.974 440.224 107.531 440.224 106.971C440.224 106.42 440.107 105.949 439.874 105.557C439.65 105.174 439.351 104.861 438.978 104.619C438.605 104.385 438.194 104.213 437.746 104.101C437.298 103.989 436.855 103.933 436.416 103.933C436.024 103.933 435.637 104.007 435.254 104.157C434.871 104.315 434.554 104.563 434.302 104.899C434.059 105.235 433.938 105.678 433.938 106.229C433.938 106.779 434.092 107.279 434.4 107.727C434.717 108.175 435.198 108.459 435.842 108.581L436.276 108.665V106.509L437.34 106.733V109.953L433 109.029V108.147L434.064 108.287C433.691 108.025 433.397 107.689 433.182 107.279C432.967 106.877 432.86 106.425 432.86 105.921ZM433 111.789V110.445L441.162 115.093V116.591L433 117.711V116.423L435.212 116.157V113.035L433 111.789ZM436.248 113.609V116.031L439.804 115.597L436.248 113.609ZM433 119.645L434.064 119.869L440.098 125.805V121.381L441.162 121.605V127.555L440.084 127.331L434.064 121.409V126.057L433 125.833V119.645ZM433 128.86L434.036 129.084V131.016L440.126 132.318V130.386L441.162 130.596V135.664L440.126 135.454V133.508L434.036 132.206V134.152L433 133.928V128.86ZM433 136.828L441.162 138.564V139.922L434.484 142.456L441.162 143.87V145.004L433 143.268V141.896L439.636 139.376L433 137.962V136.828ZM436.654 152.16V147.876L434.064 147.316V152.02L433 151.796V145.86L441.162 147.596V153.322L440.098 153.098V148.604L437.718 148.1V152.384L436.654 152.16Z" fill="white"/>
<path d="M836.018 290.78L837.98 278.288H839.042L838.88 280.016C839.684 278.708 840.8 278.054 842.228 278.054C843.248 278.054 844.082 278.408 844.73 279.116C845.378 279.824 845.702 280.742 845.702 281.87C845.702 283.394 845.258 284.666 844.37 285.686C843.494 286.706 842.396 287.216 841.076 287.216C840.32 287.216 839.678 287.042 839.15 286.694C838.622 286.334 838.256 285.842 838.052 285.218L837.188 290.78H836.018ZM838.43 283.436C838.43 284.3 838.652 284.972 839.096 285.452C839.54 285.92 840.17 286.154 840.986 286.154C841.982 286.154 842.816 285.746 843.488 284.93C844.172 284.114 844.514 283.106 844.514 281.906C844.514 281.054 844.286 280.376 843.83 279.872C843.374 279.368 842.762 279.116 841.994 279.116C840.986 279.116 840.14 279.536 839.456 280.376C838.772 281.204 838.43 282.224 838.43 283.436ZM848.154 287H846.984L849.054 273.878H850.224L848.154 287ZM853.263 287.216C852.495 287.216 851.877 287.006 851.409 286.586C850.941 286.166 850.707 285.602 850.707 284.894C850.707 284.03 851.025 283.334 851.661 282.806C852.297 282.266 853.197 281.948 854.361 281.852L857.205 281.636L857.241 281.384C857.385 280.64 857.283 280.07 856.935 279.674C856.599 279.266 856.041 279.062 855.261 279.062C853.785 279.062 852.945 279.692 852.741 280.952H851.607C851.739 280.04 852.135 279.332 852.795 278.828C853.455 278.312 854.301 278.054 855.333 278.054C856.437 278.054 857.265 278.354 857.817 278.954C858.381 279.542 858.585 280.34 858.429 281.348L857.547 287H856.521L856.629 285.47C856.293 286.01 855.825 286.436 855.225 286.748C854.625 287.06 853.971 287.216 853.263 287.216ZM853.623 286.226C854.511 286.226 855.255 285.938 855.855 285.362C856.467 284.786 856.851 284.006 857.007 283.022L857.079 282.536L854.487 282.752C853.647 282.824 853.005 283.04 852.561 283.4C852.117 283.76 851.895 284.24 851.895 284.84C851.895 285.26 852.051 285.596 852.363 285.848C852.675 286.1 853.095 286.226 853.623 286.226ZM861.793 287H860.605L861.829 279.296H860.137L860.299 278.288H861.991L862.423 275.534H863.593L863.161 278.288H864.871L864.709 279.296H862.999L861.793 287ZM868.762 287.216C867.658 287.216 866.758 286.856 866.062 286.136C865.378 285.416 865.036 284.486 865.036 283.346C865.036 281.858 865.48 280.604 866.368 279.584C867.268 278.564 868.378 278.054 869.698 278.054C870.886 278.054 871.804 278.45 872.452 279.242C873.1 280.022 873.328 281.006 873.136 282.194L873.046 282.788H866.224C866.212 282.896 866.206 283.064 866.206 283.292C866.206 284.168 866.44 284.87 866.908 285.398C867.376 285.926 868 286.19 868.78 286.19C869.428 286.19 870.004 286.034 870.508 285.722C871.012 285.398 871.372 284.96 871.588 284.408H872.776C872.488 285.272 871.978 285.956 871.246 286.46C870.526 286.964 869.698 287.216 868.762 287.216ZM869.662 279.08C868.894 279.08 868.21 279.344 867.61 279.872C867.022 280.388 866.614 281.072 866.386 281.924H871.984C872.116 281.072 871.966 280.388 871.534 279.872C871.102 279.344 870.478 279.08 869.662 279.08ZM874.955 287.198C874.691 287.198 874.469 287.114 874.289 286.946C874.121 286.766 874.037 286.544 874.037 286.28C874.037 285.944 874.163 285.65 874.415 285.398C874.679 285.134 874.979 285.002 875.315 285.002C875.579 285.002 875.795 285.092 875.963 285.272C876.143 285.44 876.233 285.662 876.233 285.938C876.233 286.274 876.101 286.568 875.837 286.82C875.585 287.072 875.291 287.198 874.955 287.198ZM884.698 287H883.528L884.896 278.288H885.904L885.85 279.566C886.474 278.558 887.398 278.054 888.622 278.054C889.282 278.054 889.828 278.228 890.26 278.576C890.692 278.912 890.962 279.38 891.07 279.98C891.37 279.38 891.79 278.912 892.33 278.576C892.87 278.228 893.476 278.054 894.148 278.054C895.06 278.054 895.762 278.36 896.254 278.972C896.758 279.572 896.938 280.346 896.794 281.294L895.912 287H894.742L895.588 281.546C895.708 280.79 895.612 280.202 895.3 279.782C894.988 279.35 894.496 279.134 893.824 279.134C893.152 279.134 892.57 279.362 892.078 279.818C891.586 280.274 891.28 280.868 891.16 281.6L890.314 287H889.126L890.008 281.51C890.128 280.79 890.026 280.214 889.702 279.782C889.378 279.35 888.886 279.134 888.226 279.134C887.554 279.134 886.972 279.362 886.48 279.818C885.988 280.274 885.682 280.862 885.562 281.582L884.698 287ZM900.865 287.216C900.097 287.216 899.479 287.006 899.011 286.586C898.543 286.166 898.309 285.602 898.309 284.894C898.309 284.03 898.627 283.334 899.263 282.806C899.899 282.266 900.799 281.948 901.963 281.852L904.807 281.636L904.843 281.384C904.987 280.64 904.885 280.07 904.537 279.674C904.201 279.266 903.643 279.062 902.863 279.062C901.387 279.062 900.547 279.692 900.343 280.952H899.209C899.341 280.04 899.737 279.332 900.397 278.828C901.057 278.312 901.903 278.054 902.935 278.054C904.039 278.054 904.867 278.354 905.419 278.954C905.983 279.542 906.187 280.34 906.031 281.348L905.149 287H904.123L904.231 285.47C903.895 286.01 903.427 286.436 902.827 286.748C902.227 287.06 901.573 287.216 900.865 287.216ZM901.225 286.226C902.113 286.226 902.857 285.938 903.457 285.362C904.069 284.786 904.453 284.006 904.609 283.022L904.681 282.536L902.089 282.752C901.249 282.824 900.607 283.04 900.163 283.4C899.719 283.76 899.497 284.24 899.497 284.84C899.497 285.26 899.653 285.596 899.965 285.848C900.277 286.1 900.697 286.226 901.225 286.226ZM907.681 283.112C907.681 281.696 908.131 280.502 909.031 279.53C909.931 278.546 911.035 278.054 912.343 278.054C913.063 278.054 913.681 278.228 914.197 278.576C914.713 278.924 915.061 279.404 915.241 280.016L915.655 278.288H916.717L915.385 286.748C915.157 288.14 914.665 289.196 913.909 289.916C913.153 290.636 912.157 290.996 910.921 290.996C909.793 290.996 908.881 290.69 908.185 290.078C907.489 289.466 907.123 288.656 907.087 287.648H908.275C908.311 288.344 908.569 288.896 909.049 289.304C909.529 289.712 910.159 289.916 910.939 289.916C911.827 289.916 912.547 289.652 913.099 289.124C913.663 288.596 914.023 287.84 914.179 286.856L914.521 284.822C914.137 285.434 913.651 285.908 913.063 286.244C912.487 286.568 911.851 286.73 911.155 286.73C910.123 286.73 909.283 286.394 908.635 285.722C907.999 285.05 907.681 284.18 907.681 283.112ZM908.887 283.058C908.887 283.85 909.109 284.486 909.553 284.966C909.997 285.434 910.585 285.668 911.317 285.668C912.313 285.668 913.147 285.29 913.819 284.534C914.503 283.766 914.845 282.812 914.845 281.672C914.845 280.88 914.623 280.256 914.179 279.8C913.747 279.344 913.147 279.116 912.379 279.116C911.395 279.116 910.567 279.5 909.895 280.268C909.223 281.024 908.887 281.954 908.887 283.058ZM920.376 287.216C919.608 287.216 918.99 287.006 918.522 286.586C918.054 286.166 917.82 285.602 917.82 284.894C917.82 284.03 918.138 283.334 918.774 282.806C919.41 282.266 920.31 281.948 921.474 281.852L924.318 281.636L924.354 281.384C924.498 280.64 924.396 280.07 924.048 279.674C923.712 279.266 923.154 279.062 922.374 279.062C920.898 279.062 920.058 279.692 919.854 280.952H918.72C918.852 280.04 919.248 279.332 919.908 278.828C920.568 278.312 921.414 278.054 922.446 278.054C923.55 278.054 924.378 278.354 924.93 278.954C925.494 279.542 925.698 280.34 925.542 281.348L924.66 287H923.634L923.742 285.47C923.406 286.01 922.938 286.436 922.338 286.748C921.738 287.06 921.084 287.216 920.376 287.216ZM920.736 286.226C921.624 286.226 922.368 285.938 922.968 285.362C923.58 284.786 923.964 284.006 924.12 283.022L924.192 282.536L921.6 282.752C920.76 282.824 920.118 283.04 919.674 283.4C919.23 283.76 919.008 284.24 919.008 284.84C919.008 285.26 919.164 285.596 919.476 285.848C919.788 286.1 920.208 286.226 920.736 286.226ZM932.971 287H926.563L926.707 286.064L932.665 279.296H927.787L927.949 278.288H934.357L934.195 279.26L928.237 286.01H933.133L932.971 287ZM937.319 275.876C937.091 275.876 936.905 275.804 936.761 275.66C936.617 275.516 936.545 275.336 936.545 275.12C936.545 274.844 936.647 274.598 936.851 274.382C937.067 274.166 937.313 274.058 937.589 274.058C937.805 274.058 937.985 274.13 938.129 274.274C938.273 274.418 938.345 274.598 938.345 274.814C938.345 275.09 938.243 275.336 938.039 275.552C937.835 275.768 937.595 275.876 937.319 275.876ZM934.979 287L936.347 278.288H937.535L936.149 287H934.979ZM939.911 287H938.741L940.109 278.288H941.135L941.045 279.854C941.849 278.654 942.893 278.054 944.177 278.054C945.173 278.054 945.935 278.39 946.463 279.062C946.991 279.734 947.171 280.61 947.003 281.69L946.175 287H944.987L945.797 281.942C945.953 281.042 945.863 280.352 945.527 279.872C945.191 279.38 944.639 279.134 943.871 279.134C943.031 279.134 942.323 279.434 941.747 280.034C941.171 280.622 940.799 281.432 940.631 282.464L939.911 287ZM952.381 287.216C951.277 287.216 950.377 286.856 949.681 286.136C948.997 285.416 948.655 284.486 948.655 283.346C948.655 281.858 949.099 280.604 949.987 279.584C950.887 278.564 951.997 278.054 953.317 278.054C954.505 278.054 955.423 278.45 956.071 279.242C956.719 280.022 956.947 281.006 956.755 282.194L956.665 282.788H949.843C949.831 282.896 949.825 283.064 949.825 283.292C949.825 284.168 950.059 284.87 950.527 285.398C950.995 285.926 951.619 286.19 952.399 286.19C953.047 286.19 953.623 286.034 954.127 285.722C954.631 285.398 954.991 284.96 955.207 284.408H956.395C956.107 285.272 955.597 285.956 954.865 286.46C954.145 286.964 953.317 287.216 952.381 287.216ZM953.281 279.08C952.513 279.08 951.829 279.344 951.229 279.872C950.641 280.388 950.233 281.072 950.005 281.924H955.603C955.735 281.072 955.585 280.388 955.153 279.872C954.721 279.344 954.097 279.08 953.281 279.08Z" fill="white"/>
</svg>
