<svg preserveAspectRatio="none" width="100%" height="100%" overflow="visible" style="display: block;" viewBox="0 0 23.6019 23.6019" fill="none" xmlns="http://www.w3.org/2000/svg">
<path id="Vector" d="M11.4701 0.599184C11.512 0.201564 12.0899 0.20156 12.1318 0.599184L12.7347 6.32103C12.788 6.82661 13.4353 7.00066 13.7343 6.58973L17.1195 1.93623C17.3547 1.61303 17.8549 1.90297 17.6923 2.26816L15.353 7.51957C15.146 7.98422 15.6201 8.45979 16.0844 8.25333L21.3393 5.91685C21.7044 5.75454 21.993 6.25633 21.6696 6.4911L17.0206 9.86677C16.609 10.1656 16.7826 10.8154 17.2882 10.8686L23.003 11.4696C23.4003 11.5114 23.4003 12.0905 23.003 12.1323L17.2882 12.7333C16.7826 12.7865 16.609 13.4363 17.0206 13.7352L21.6696 17.1108C21.993 17.3456 21.7044 17.8474 21.3393 17.6851L16.0844 15.3486C15.6201 15.1422 15.146 15.6177 15.353 16.0824L17.6923 21.3338C17.8549 21.699 17.3547 21.9889 17.1195 21.6657L13.7343 17.0122C13.4353 16.6013 12.788 16.7753 12.7347 17.2809L12.1318 23.0028C12.0899 23.4004 11.512 23.4004 11.4701 23.0027L10.8672 17.2809C10.814 16.7753 10.1666 16.6013 9.86765 17.0122L6.48238 21.6657C6.24727 21.9889 5.74699 21.699 5.90968 21.3338L8.24894 16.0824C8.4559 15.6177 7.98187 15.1422 7.51756 15.3486L2.26259 17.6851C1.89756 17.8474 1.60895 17.3456 1.9323 17.1108L6.5813 13.7352C6.99289 13.4363 6.81935 12.7865 6.31373 12.7333L0.598912 12.1323C0.201654 12.0905 0.201651 11.5114 0.598912 11.4696L6.31373 10.8686C6.81935 10.8154 6.99289 10.1656 6.5813 9.86677L1.9323 6.4911C1.60896 6.25633 1.89755 5.75454 2.26259 5.91685L7.51756 8.25333C7.98187 8.45979 8.4559 7.98422 8.24894 7.51957L5.90968 2.26816C5.74699 1.90297 6.24727 1.61303 6.48241 1.93624L9.86765 6.58973C10.1666 7.00066 10.814 6.82661 10.8672 6.32103L11.4701 0.599184Z" fill="var(--fill-0, #8C183F)" stroke="var(--stroke-0, #6F1030)" stroke-width="0.601935"/>
</svg>
