<svg width="725" height="400" viewBox="0 0 725 400" fill="none" xmlns="http://www.w3.org/2000/svg">
<rect width="725" height="400" fill="url(#paint0_radial_905_3821)"/>
<path d="M267.613 164.102C247.596 163.303 230.728 178.952 229.932 199.057C229.136 219.161 244.721 236.102 264.736 236.901C284.753 237.7 301.621 222.051 302.417 201.947C303.209 181.842 287.628 164.898 267.613 164.102ZM282.923 217.469C282.472 218.269 281.594 218.668 280.739 218.548C280.477 218.512 280.215 218.425 279.969 218.285C275.175 215.545 269.951 213.76 264.441 212.981C258.931 212.202 253.417 212.472 248.057 213.78C246.893 214.063 245.723 213.347 245.441 212.179C245.159 211.01 245.872 209.835 247.035 209.552C252.93 208.113 258.99 207.817 265.044 208.673C271.098 209.528 276.84 211.489 282.114 214.503C283.152 215.099 283.517 216.424 282.927 217.469H282.923ZM287.691 207.907C286.951 209.279 285.241 209.791 283.875 209.049C278.265 206.002 272.192 204.001 265.823 203.102C259.454 202.203 253.069 202.446 246.84 203.821C246.502 203.895 246.167 203.908 245.842 203.861C244.711 203.701 243.743 202.856 243.485 201.667C243.15 200.142 244.111 198.634 245.63 198.297C252.516 196.776 259.574 196.506 266.609 197.498C273.641 198.491 280.354 200.701 286.554 204.071C287.923 204.814 288.43 206.528 287.691 207.903V207.907ZM292.975 197.125C292.279 198.471 290.83 199.166 289.418 198.967C289.037 198.913 288.662 198.794 288.301 198.607C281.77 195.194 274.735 192.94 267.391 191.905C260.048 190.869 252.665 191.089 245.451 192.56C243.574 192.943 241.748 191.725 241.366 189.844C240.985 187.959 242.198 186.124 244.072 185.741C252.061 184.113 260.23 183.87 268.356 185.016C276.482 186.161 284.266 188.658 291.5 192.437C293.197 193.323 293.857 195.424 292.975 197.129V197.125Z" fill="#1ED760"/>
<path d="M331.605 219.54C325.349 219.54 319.978 217.366 317.734 214.896C317.522 214.653 317.492 214.519 317.492 214.223V206.868C317.492 206.518 317.787 206.385 318.025 206.681C320.724 210.064 326.473 212.828 331.177 212.828C334.92 212.828 337.433 211.809 337.433 208.479C337.433 206.492 336.498 205.203 331.393 203.755L328.452 202.922C321.636 200.991 317.492 198.707 317.492 192.158C317.492 186.361 322.836 181.26 331.764 181.26C336.147 181.26 340.503 182.628 343.016 184.509C343.228 184.669 343.311 184.832 343.311 185.125V191.811C343.311 192.267 342.936 192.401 342.588 192.108C340.556 190.416 336.627 188.135 331.976 188.135C327.325 188.135 325.133 190.23 325.133 192.161C325.133 194.202 326.549 194.765 331.602 196.27L334.115 197.022C341.892 199.356 345.075 202.633 345.075 208.057C345.075 215.036 339.303 219.547 331.605 219.547V219.54ZM386.105 205.526C386.105 201.257 389.045 198.091 393.189 198.091C397.334 198.091 400.244 201.257 400.244 205.526C400.244 209.795 397.304 212.961 393.189 212.961C389.075 212.961 386.105 209.795 386.105 205.526ZM393.16 219.54C401.793 219.54 407.807 213.341 407.807 205.526C407.807 197.711 401.793 191.512 393.16 191.512C384.527 191.512 378.539 197.658 378.539 205.526C378.539 213.394 384.5 219.54 393.16 219.54ZM445.282 189.903V192.158H440.737C440.495 192.158 440.363 192.291 440.363 192.534V197.901C440.363 198.144 440.495 198.277 440.737 198.277H445.282V218.518C445.282 218.761 445.415 218.895 445.657 218.895H452.5C452.742 218.895 452.874 218.761 452.874 218.518V198.277H458.729L467.23 216.827L462.658 226.919C462.525 227.215 462.684 227.348 462.953 227.348H470.25C470.492 227.348 470.598 227.295 470.704 227.052L485.805 192.584C485.911 192.341 485.779 192.154 485.51 192.154H478.667C478.425 192.154 478.319 192.208 478.213 192.451L471.317 209.095L464.395 192.451C464.289 192.208 464.183 192.154 463.941 192.154H452.874V190.383C452.874 187.483 454.827 186.141 457.337 186.141C458.832 186.141 460.463 186.92 461.614 187.616C461.882 187.776 462.068 187.589 461.962 187.346L459.555 181.576C459.475 181.39 459.369 181.28 459.18 181.173C458.003 180.557 456.08 180.018 454.207 180.018C448.541 180.018 445.279 184.366 445.279 189.897L445.282 189.903ZM364.721 219.377C371.564 219.377 376.48 213.444 376.48 205.473C376.48 197.502 371.508 191.675 364.665 191.675C359.586 191.675 356.645 194.788 354.934 197.901V192.534C354.934 192.291 354.802 192.158 354.56 192.158H347.85C347.608 192.158 347.475 192.291 347.475 192.534V226.976C347.475 227.219 347.608 227.352 347.85 227.352H354.56C354.802 227.352 354.934 227.219 354.934 226.976V213.204C356.645 216.317 359.533 219.377 364.718 219.377H364.721ZM421.814 219.271C424.058 219.271 426.223 218.681 427.506 217.929C427.692 217.822 427.718 217.716 427.718 217.526V212.425C427.718 212.155 427.585 212.075 427.343 212.212C426.568 212.641 425.553 212.991 424.164 212.991C421.973 212.991 420.584 211.703 420.584 208.856V198.277H427.267C427.509 198.277 427.642 198.144 427.642 197.901V192.534C427.642 192.291 427.509 192.158 427.267 192.158H420.584V185.152C420.584 184.856 420.398 184.696 420.129 184.909L408.181 194.358C408.022 194.492 407.969 194.628 407.969 194.841V197.901C407.969 198.144 408.102 198.277 408.344 198.277H412.995V209.981C412.995 216.317 416.629 219.271 421.817 219.271H421.814ZM429.538 184.213C429.538 186.63 431.408 188.455 433.974 188.455C436.54 188.455 438.463 186.63 438.463 184.213C438.463 181.796 436.593 179.971 433.974 179.971C431.355 179.971 429.538 181.796 429.538 184.213ZM430.579 218.898H437.422C437.664 218.898 437.797 218.765 437.797 218.522V192.537C437.797 192.294 437.664 192.161 437.422 192.161H430.579C430.337 192.161 430.205 192.294 430.205 192.537V218.522C430.205 218.765 430.337 218.898 430.579 218.898ZM354.775 205.423C356.005 201.287 358.837 198.121 362.686 198.121C366.535 198.121 368.885 200.911 368.885 205.476C368.885 210.041 366.346 212.885 362.686 212.885C359.026 212.885 356.002 209.342 354.775 205.423Z" fill="#1ED760"/>
<path d="M494.571 193.736C494.219 193.127 493.732 192.65 493.109 192.304C492.485 191.961 491.789 191.788 491.014 191.788C490.238 191.788 489.542 191.961 488.918 192.304C488.295 192.65 487.808 193.127 487.456 193.736C487.105 194.345 486.929 195.034 486.929 195.804C486.929 196.573 487.105 197.249 487.456 197.858C487.808 198.467 488.295 198.943 488.918 199.29C489.542 199.636 490.238 199.806 491.014 199.806C491.789 199.806 492.485 199.633 493.109 199.29C493.732 198.947 494.219 198.467 494.571 197.858C494.922 197.249 495.098 196.566 495.098 195.804C495.098 195.041 494.922 194.345 494.571 193.736ZM493.931 197.518C493.646 198.024 493.248 198.417 492.741 198.704C492.234 198.987 491.657 199.13 491.017 199.13C490.377 199.13 489.784 198.987 489.276 198.704C488.769 198.421 488.375 198.024 488.093 197.518C487.811 197.016 487.672 196.443 487.672 195.804C487.672 195.164 487.811 194.595 488.093 194.095C488.375 193.596 488.769 193.203 489.276 192.92C489.784 192.637 490.364 192.494 491.017 192.494C491.67 192.494 492.234 192.637 492.741 192.92C493.248 193.203 493.646 193.599 493.931 194.105C494.216 194.612 494.359 195.181 494.359 195.82C494.359 196.46 494.216 197.016 493.931 197.522V197.518Z" fill="#1ED760"/>
<path d="M492.403 195.727C492.674 195.527 492.81 195.261 492.81 194.931C492.81 194.602 492.678 194.322 492.413 194.122C492.147 193.922 491.763 193.822 491.259 193.822H489.482V197.552H490.34V196.07H490.808L491.938 197.552H492.993L491.756 195.98C492.018 195.93 492.24 195.847 492.406 195.724L492.403 195.727ZM491.123 195.397H490.34V194.485H491.153C491.395 194.485 491.58 194.522 491.71 194.598C491.839 194.675 491.905 194.791 491.905 194.951C491.905 195.101 491.836 195.214 491.703 195.287C491.567 195.364 491.375 195.401 491.123 195.401V195.397Z" fill="#1ED760"/>
<g clip-path="url(#clip0_905_3821)">
<rect x="467.815" y="130.292" width="73.7279" height="34" rx="4" transform="rotate(24.0239 467.815 130.292)" fill="#8A38F5"/>
<path d="M470.595 156.713L469.221 156.1L471.892 150.109L470.489 149.483L471.004 148.329L472.407 148.954L473.403 146.718L474.777 147.33L473.781 149.566L475.183 150.192L474.669 151.346L473.266 150.721L470.595 156.713ZM475.157 158.956C473.623 158.272 473.101 157.006 473.681 155.705C474.267 154.39 475.611 154.008 477.35 154.626L479.679 155.454L479.77 155.249C480.304 154.051 479.777 153.308 478.812 152.878C477.658 152.363 476.772 152.581 476.388 153.444L475.189 152.91C475.854 151.419 477.518 150.987 479.359 151.808C481.128 152.596 481.909 154.065 481.049 155.994L479.049 160.481L477.88 159.96L478.249 158.74C477.519 159.396 476.312 159.471 475.157 158.956ZM476.027 158.065C477.328 158.645 478.495 158.149 479.094 156.805L479.263 156.425L477.371 155.756C476.106 155.333 475.401 155.579 475.088 156.28C474.75 157.04 475.136 157.668 476.027 158.065ZM482.173 157.371C483.072 155.354 485.076 154.356 487.151 155.281C488.306 155.795 488.963 156.719 489.018 157.812L489.661 156.645L490.889 157.192L487.834 164.046C486.831 166.297 484.804 167.11 482.612 166.133C480.668 165.266 479.827 163.578 480.372 161.648L481.745 162.261C481.452 163.391 481.967 164.356 483.166 164.891C484.51 165.49 485.778 165.004 486.384 163.645L487.022 162.213C486.183 162.837 485.026 162.917 483.901 162.416C481.87 161.51 481.28 159.373 482.173 157.371ZM483.56 157.954C482.96 159.299 483.324 160.722 484.669 161.321C486.057 161.94 487.348 161.324 487.973 159.921C488.585 158.548 488.21 157.189 486.807 156.564C485.433 155.951 484.146 156.639 483.56 157.954ZM490.026 162.886L491.342 163.472C491.016 164.203 491.376 164.889 492.282 165.293C493.247 165.723 493.978 165.576 494.271 164.918C494.486 164.436 494.382 164.039 493.722 163.517L492.595 162.665C491.46 161.791 491.141 160.896 491.61 159.843C492.197 158.528 493.679 158.19 495.257 158.894C496.821 159.591 497.453 160.924 496.876 162.296L495.561 161.709C495.851 160.98 495.571 160.312 494.738 159.941C493.875 159.557 493.224 159.722 492.931 160.379C492.716 160.862 492.923 161.339 493.546 161.827L494.666 162.695C495.749 163.527 496.101 164.35 495.625 165.417C495.019 166.776 493.466 167.117 491.771 166.361C490.09 165.612 489.421 164.245 490.026 162.886Z" fill="white"/>
<line x1="511.857" y1="165.438" x2="514.72" y2="172.908" stroke="#D7D7D7" stroke-linecap="round"/>
<line x1="509.554" y1="170.605" x2="517.023" y2="167.741" stroke="#D7D7D7" stroke-linecap="round"/>
</g>
<defs>
<radialGradient id="paint0_radial_905_3821" cx="0" cy="0" r="1" gradientUnits="userSpaceOnUse" gradientTransform="translate(362.5 200) rotate(50.7235) scale(1095.47 1985.53)">
<stop offset="0.00480769"/>
<stop offset="1" stop-color="#107125"/>
</radialGradient>
<clipPath id="clip0_905_3821">
<rect x="467.815" y="130.292" width="73.7279" height="34" rx="4" transform="rotate(24.0239 467.815 130.292)" fill="white"/>
</clipPath>
</defs>
</svg>
