<svg width="156" height="46" viewBox="0 0 156 46" fill="none" xmlns="http://www.w3.org/2000/svg">
<path d="M6.38973 14.4466C6.38973 13.4243 6.35546 11.0827 6.57707 10.4312C7.49705 7.72669 12.5687 12.7347 13.4884 12.8289C15.383 13.0231 15.6201 9.9776 16.3774 9.69391C18.4911 8.9021 19.3488 12.8427 20.0829 13.0775C23.1693 14.0649 25.2552 8.99968 26.2049 8.89684C28.4175 8.65724 28.5992 11.9616 29.081 12.8575C29.3187 13.2994 29.6525 13.6519 30.4971 13.1677C32.9926 11.7371 34.584 9.62455 35.532 9.2564C36.4943 8.88272 37.4404 10.6016 38.2331 11.9595C40.0752 15.115 45.607 5.75884 46.5007 5.79061C47.6139 5.83018 48.1268 8.70002 49.1756 10.5481C49.6029 11.3009 50.7728 7.80558 51.7713 5.31722C51.9703 4.82137 52.7169 4.79217 53.3868 5.05678C56.5019 6.28733 57.3497 8.9804 58.9237 10.3824C59.2783 10.6983 59.8877 10.3291 60.2727 9.91396C61.958 8.09632 62.5448 6.4436 63.6204 5.89992C66.0545 4.66943 68.4887 8.75215 69.6837 8.26144C70.384 7.97386 70.9733 7.04796 71.5062 6.94725C74.5253 6.37659 73.6498 13.2242 74.4876 13.5988C78.4906 15.3884 81.8137 6.82606 82.8747 7.13787C84.9672 7.75285 84.8133 10.8741 85.4573 11.6422C88.6974 15.5065 95.296 3.58137 96.1068 3.61823C99.4344 3.76949 98.4902 10.0318 99.4497 10.5868C99.9383 10.8693 100.591 10.8152 101.194 10.6409C106.642 9.06605 111.261 0.97711 112.277 0.534689C113.125 0.165637 113.43 2.81261 113.965 5.08185C114.089 5.60533 114.524 5.9506 114.958 6.24179C117.3 7.81447 120.707 6.86701 121.505 7.94859C122.194 8.88334 121.803 11.3792 122.028 12.6901C122.253 14.0011 122.681 14.2503 123.26 14.2129C126.751 13.9879 129.131 10.5668 130.172 10.158C130.65 9.96993 131.149 10.2627 131.439 10.906C131.729 11.5493 131.827 12.6471 132.084 13.3797C132.341 14.1122 132.754 14.4462 133.282 14.4949C134.454 14.6028 137.158 12.0332 140.361 9.2204C141.406 8.30215 141.64 8.8806 141.714 9.69045C141.787 10.5003 141.787 11.6424 142.036 12.2962C142.284 12.9499 142.781 13.0808 143.353 12.9074C144.666 12.5096 146.251 10.6757 148.013 9.24993C148.635 8.74681 149.105 9.32702 149.266 10.5073C149.427 11.6876 149.366 13.6129 149.674 14.6396C150.66 15.7361 151.812 16.1014 152.389 16.8592C152.513 17.3235 152.294 17.9496 152.068 18.5948" stroke="#FF9320" stroke-linecap="round"/>
<path d="M6.59633 15.0132C6.23462 15.0693 2.97143 17.2475 0.81003 18.9637C-1.03984 20.4326 5.95412 20.7191 7.03326 21.5555C7.3125 21.7719 7.35116 22.1928 7.36064 22.4981C7.47743 26.258 2.38169 30.7834 3.07657 30.8942C3.39375 30.9448 3.64615 30.9319 3.86341 31.0229C5.57798 31.7407 4.11996 36.9812 3.77277 39.359C3.64981 40.2011 3.91118 40.3321 4.24359 40.2376C6.39063 39.6269 7.51179 37.9106 7.93585 37.8275C9.55312 37.5107 9.35885 41.8228 9.86602 42.668C11.4231 45.2628 15.2884 38.0202 15.7741 37.8664C17.8436 37.2111 18.3378 42.7258 18.786 43.0967C21.1207 45.0286 23.7257 35.804 24.4284 35.0965C24.7226 34.8003 25.0237 34.7814 25.3057 34.8105C26.97 34.9821 28.1158 37.49 28.8814 37.9488C31.1268 39.2944 32.2554 32.5283 33.1258 31.5901C33.3013 31.4009 33.5807 31.4079 33.8678 31.5111C36.0302 32.2885 36.5521 35.7419 36.91 36.0556C37.0993 36.2215 37.4144 36.2493 37.7046 36.1608C39.6834 35.5574 40.8875 32.7912 41.5198 32.3344C41.7878 32.1408 42.0359 32.163 42.2306 32.331C43.3416 33.2901 43.0564 36.9522 43.403 39.1535C43.454 39.4776 43.9788 39.5242 44.3851 39.4492C46.3242 39.0913 47.6532 37.28 48.66 37.0825C50.2138 36.7778 49.158 40.5422 49.4001 40.9709C49.6909 41.4858 50.4978 41.431 51.063 41.309C53.8231 40.7136 56.8032 36.5538 57.4366 36.3291C57.7247 36.227 57.9716 36.2339 58.1626 36.3419C59.317 36.9946 59.5192 39.1983 60.3693 39.8736C60.5678 40.0313 60.842 39.9833 61.1155 39.9444C63.966 39.539 66.5359 35.0436 67.0689 34.9763C68.5202 34.793 68.4226 37.6126 68.676 38.0118C68.8 38.207 69.0429 38.2894 69.365 38.2868C73.6957 38.251 77.9384 31.2135 78.3149 31.3101C78.7314 32.9444 79.012 34.9016 79.1543 35.1797C79.247 35.2047 79.3814 34.9942 79.52 34.1054" stroke="#FF9320" stroke-linecap="round"/>
<path d="M79.5879 34.5307C79.5879 34.513 79.7011 34.248 80.0435 33.8035C80.2246 33.5683 80.6144 33.5013 80.8872 33.507C82.3311 33.5369 83.7138 35.7167 85.0076 36.3632C86.2205 36.9693 86.5227 34.1359 86.9515 33.8248C87.17 33.6663 87.4749 33.6437 87.7376 33.6721C88.8468 33.7917 90.0586 36.2691 91.0851 37.4037C92.1116 38.5382 94.121 35.4076 95.0533 35.0274C95.2968 34.9281 95.5897 34.9563 95.8215 35.0246C97.8858 35.6328 98.8574 39.5132 99.3508 39.5947C100.373 39.7637 102.226 37.3899 103.946 36.5662C104.221 36.4346 104.507 36.5581 104.772 36.7378C106.088 37.6287 107.064 41.2802 108.133 43.4909C108.267 43.7677 108.579 43.8 108.887 43.7867C110.186 43.7307 112.566 40.5759 114.577 38.6516C116.023 37.267 117.026 43.672 117.658 44.3585C119.545 46.4089 122.761 38.1799 123.83 37.6504C124.285 37.4254 124.976 38.024 125.669 38.6659C125.957 38.9329 126.186 39.0007 126.442 38.2522C127.938 33.8877 128.085 32.5424 128.442 32.2353C129.695 31.1562 135.756 33.334 138.379 33.5893C138.648 33.6155 138.751 33.2086 139.024 33.1071C140.284 32.6389 142.195 34.5801 143.452 35.1615C145.087 35.9179 145.507 31.4463 145.914 31.1732C147.176 30.326 149.364 32.9944 150.412 33.212C150.648 33.261 150.872 33.0237 151.007 32.8163C151.879 31.4729 151.082 29.0651 150.863 28.2502C150.769 27.8985 150.722 27.6688 151.266 27.4408C152.871 26.7673 154.337 26.615 154.635 26.2233C156.288 24.0504 151.47 20.3319 151.874 19.9666C152.08 19.8033 152.287 19.6848 152.354 19.5163C152.421 19.3477 152.342 19.1328 152.32 18.856" stroke="#FF9320" stroke-linecap="round"/>
</svg>
