<svg width="193" height="62" viewBox="0 0 193 62" fill="none" xmlns="http://www.w3.org/2000/svg">
<path d="M179.23 12.9869C178.131 12.9869 174.079 12.3823 170.687 10.4369C168.947 9.4386 167.965 7.6194 167.668 5.67897C167.519 4.70333 167.755 3.69367 168.131 2.8862C168.871 1.30252 170.605 0.751326 172.506 0.549146C173.543 0.438877 174.737 0.480405 175.626 1.03187C179.095 3.18561 178.3 7.8262 178.627 8.90786C178.896 9.79918 179.52 6.28254 180.305 4.72019C180.696 3.94262 181.462 3.50266 182.27 3.23682C183.079 2.97098 184.006 2.97098 184.814 3.32347C185.622 3.67596 186.283 4.38094 186.721 5.21587C187.158 6.0508 187.351 6.99432 187.236 7.90254C186.776 11.5266 183.245 12.0967 182.54 12.418C179.082 13.9951 190.051 13.3744 191.297 14.5107C191.916 15.0748 192.239 15.9541 192.412 16.8476C192.585 17.7412 192.529 18.7095 192.007 19.6913C190.822 21.9169 188.716 22.9673 187.017 23.4949C186.098 23.7801 184.994 23.7355 184.087 23.4286C182.35 22.8411 181.401 20.8852 180.62 20.0019C179.765 19.0359 178.827 22.8929 177.726 24.4994C176.706 25.989 173.933 25.7118 171.503 25.2559C170.528 25.073 170.358 23.8885 170.342 22.9737C170.277 19.3944 173.265 17.9293 173.827 17.5263C174.966 16.7091 169.985 17.6666 167.799 17.3892C166.875 17.2719 166.526 16.2144 166.373 15.3453C166.22 14.4763 166.324 13.5753 166.653 12.7663C167.319 11.1292 168.863 10.2207 170.917 9.6629C172.187 9.31816 174.001 9.34605 175.27 9.61798C176.539 9.8899 177.229 10.5323 177.445 11.3108C177.888 12.9068 177.518 14.6895 178.586 15.9513C179.122 16.5841 180.087 16.5814 180.85 16.3758C181.613 16.1703 182.259 15.6035 182.204 15.1379C182.148 14.6723 181.372 14.3251 179.684 13.8565" stroke="#F28526" stroke-linecap="round"/>
<path d="M10.0338 44.2276C9.91883 44.2276 8.66646 44.2276 6.57539 44.0053C5.00672 43.8386 4.15034 42.253 3.46982 40.998C2.83707 39.8311 2.77691 38.5073 3.07699 37.3577C3.7286 34.8613 7.20989 34.7894 9.34001 34.8533C11.782 34.9265 12.088 39.9834 12.4878 41.2231C14.5138 47.5061 13.5562 32.1705 14.3084 31.2468C15.0191 30.3743 17.1492 30.2897 19.6476 30.3439C21.1348 30.3761 21.962 31.2974 22.5898 32.2335C23.209 33.1569 23.0851 34.9744 22.9443 36.8912C22.7216 39.9221 20.0402 41.3388 19.3412 42.0575C17.865 43.5753 24.7355 40.9649 28.6422 40.9955C29.4067 41.0014 29.7743 41.5836 30.0107 42.0653C30.4817 43.0249 30.1772 44.3183 29.6479 45.4736C28.4343 48.1223 24.318 48.6339 20.0572 48.7465C19.142 48.7707 18.6999 48.3407 18.748 48.2825C20.2846 46.4226 23.7002 50.6809 25.2154 52.6378C26.0029 53.6548 25.9594 55.5446 25.8397 57.3511C25.7486 58.7252 24.4907 59.7949 23.089 60.7818C21.9648 61.5733 20.6415 61.5832 19.3792 61.3833C17.0006 61.0066 15.9274 57.4338 14.8369 55.091C14.5817 54.5427 14.4777 53.9427 14.3767 54.0423C12.8707 55.5262 12.5663 58.2765 10.4524 59.9918C9.26471 60.9556 7.90616 61.3272 6.50127 61.4719C4.675 61.6599 3.05094 60.8895 2.15484 59.7206C1.44124 58.7898 1.67227 57.4033 1.85016 56.3115C2.25439 53.8304 5.8993 53.4667 7.83138 53.3056C10.2164 53.1069 2.99833 52.9982 2.05774 52.189C0.941613 51.2289 0.557656 49.7185 0.502338 48.5744C0.474777 48.0043 0.694208 47.4574 0.985952 47.0291C2.63751 45.8222 4.15387 45.38 5.7766 45.2737C6.91135 45.2356 8.67807 45.2298 11.2648 45.5172" stroke="#FF3D63" stroke-linecap="round"/>
<path d="M11.2649 45.5172C11.2649 46.9926 11.5766 50.3657 12.3388 51.2241C12.7272 51.6615 13.3694 51.7502 13.9124 51.7015C14.9796 51.6058 15.8193 50.491 16.4624 49.2827C17.0618 48.1564 17.0612 46.5804 16.8683 45.1254C16.7836 44.4863 16.2769 44.1819 15.7966 43.9691C14.7633 43.6786 13.6243 43.5948 12.5866 43.8196C12.1181 44.0481 11.7675 44.5089 11.3172 45.5817" stroke="#FF3D63" stroke-linecap="round"/>
<path d="M29.8734 24.5975C29.48 24.012 28.5833 22.2569 28.5021 21.3671C28.1277 17.2643 37.5215 23.7678 38.3843 23.7905C39.226 23.8126 39.8951 21.665 41.1795 20.5055C42.0128 19.7532 43.1417 22.0407 43.9607 23.3219C45.8179 26.2274 48.4683 16.508 49.3061 15.8218C49.7297 15.475 50.3216 15.4607 50.8154 15.8188C51.9751 16.6598 52.4346 18.4386 53.0758 19.4904C53.3837 19.9956 53.9131 20.2003 54.6371 19.8136C56.5435 18.7954 57.8253 16.9857 58.859 16.522C59.3717 16.2919 59.952 16.4082 60.5101 17.0148C61.0682 17.6213 61.6098 18.8004 62.0402 19.647C62.4706 20.4936 62.7734 20.9719 63.5419 20.3038C68.0884 16.3512 68.7119 13.9254 69.6385 13.4903C70.0967 13.2751 70.6161 13.3677 71.0171 13.6772C71.8884 14.3498 72.3914 16.3616 73.3004 18.0993C73.6744 18.8143 74.4675 18.6463 75.1926 18.2272C76.8438 17.2729 78.1624 15.7484 79.3954 15.1256C79.9518 14.8446 80.4764 14.9783 80.8915 15.3121C81.7973 16.0407 82.3726 17.3838 83.3399 18.0507C85.3708 19.4509 87.6953 15.8943 89.6496 14.7713C90.4398 14.3171 90.9894 14.5514 91.4579 15.0551C91.9265 15.5588 92.3404 16.4407 92.7976 16.789C93.5915 17.3938 95.4585 15.3106 97.5438 13.3099C98.3257 12.5597 98.9112 12.9351 99.3645 13.7284C100.49 15.6973 100.936 17.7256 101.665 18.2862C103.331 19.5674 106.62 14.9123 109.145 14.0901C110.171 13.7558 110.146 16.3638 110.576 17.1804C112.143 20.1561 116.47 12.8281 117.355 12.5341C119.532 11.8108 119.654 17.3984 120.152 18.4218C121.643 21.4874 127.371 14.0184 129.471 13.522C130.059 13.383 130.753 13.4617 131.138 13.755C131.886 14.3253 131.702 15.8281 132.064 16.5894C133.36 19.3162 136.953 12.8926 137.932 12.5883C138.419 12.4368 138.95 12.684 139.349 13.1389C141.156 15.1972 140.893 18.3292 141.626 19.9951C143.825 24.9927 148.44 8.90627 149.14 9.16927C150.96 9.85264 149.585 13.5854 149.874 14.64C150.008 15.126 150.64 15.2044 151.197 15.0604C153.722 14.4077 155.039 12.8032 156.08 12.5268C156.616 12.3847 157.207 12.5109 157.739 13.1824C159.068 14.8577 159.474 17.0323 160.169 17.7494C160.965 18.5707 162.674 16.2693 164.028 15.0215C164.84 15.3086 165.349 16.4276 165.959 17.3233C166.332 17.651 166.832 17.7215 167.682 17.2382" stroke="#E3A72D" stroke-linecap="round"/>
<path d="M30.6323 24.8377C30.594 24.8377 28.7443 24.8377 26.0764 25.3135C24.7003 25.5589 25.7276 28.4617 25.6133 29.7353C25.4351 30.2685 25.0129 30.5723 24.6115 30.9162C24.21 31.2602 23.8421 31.6351 22.9695 32.4194" stroke="#E3A72D" stroke-linecap="round"/>
<path d="M28.6986 47.5849C29.3033 47.7712 31.1884 48.9758 33.4566 51.0368C35.3789 52.7835 38.1744 46.9747 40.3881 45.8681C40.9107 45.6068 41.5025 45.6468 42.0191 45.7983C44.2934 46.4654 45.1377 49.2521 45.8762 49.8887C47.3745 51.1803 49.146 48.4803 50.3694 48.6228C51.4323 48.7466 52.6206 50.522 54.191 51.922C56.2781 53.7827 58.048 50.0305 59.0612 49.8713C60.1546 49.6995 60.9986 51.1312 61.7659 51.7123C62.5535 52.3088 63.5985 50.7031 64.4794 50.3959C65.4206 50.0676 66.3205 52.5643 67.4253 54.5375C69.0625 57.4614 73.1948 49.8297 75.3797 49.2354C76.5473 48.9177 77.8263 51.3381 79.1999 53.1943C79.7271 53.9065 80.412 53.5375 81.0091 52.9234C81.6061 52.3093 82.2231 51.3041 82.7917 50.8435C83.3603 50.3829 83.8617 50.4974 84.2375 50.8381C85.0196 51.5471 85.4501 52.7235 86.2415 53.143C88.165 54.1626 89.4457 50.7852 90.3745 50.513C90.8029 50.3875 91.194 50.9562 91.6469 51.1494C94.2381 52.2549 96.5508 46.2887 97.5371 46.2075C98.4868 46.1293 99.1333 47.3917 99.7724 47.9959C101.347 49.4848 103.172 45.4402 104.058 45.2606C105.979 44.8709 108.019 45.0971 110.14 45.1631C111.546 45.2069 111.994 47.5171 113.154 47.6288C113.878 47.6985 114.782 46.6334 115.506 46.2265C116.229 45.8196 116.72 45.8064 116.998 46.6141C117.788 48.9066 117.435 51.4074 117.72 52.6426C117.857 53.2377 118.35 53.6129 119.214 53.3378C121.563 52.5903 123.256 50.989 124.102 51.1839C126.399 51.7132 125.257 56.089 125.956 56.6125C128.341 58.3989 130.971 51.8232 131.921 51.8726C132.9 51.9234 133.327 53.6465 133.983 54.5524C134.593 55.3941 136.881 53.3019 139.117 51.81C139.578 51.502 140.186 51.6883 140.652 51.9228C141.595 52.3973 142.24 53.5529 143.046 53.9077C144.111 54.3764 144.867 51.3029 145.794 49.618C146.176 48.9225 146.828 48.9514 147.471 49.1962C150.919 50.5097 153.649 52.1739 154.964 51.7777C156.107 50.5891 157.064 49.455 157.93 49.204C158.378 49.2707 158.842 49.7315 159.698 51.1489" stroke="#E3A72D" stroke-linecap="round"/>
<path d="M159.828 51.2608C159.838 51.2608 160.455 51.2608 161.386 50.7036C162.709 49.9119 161.752 47.7211 161.869 47.4866C162.527 46.1701 164.844 49.9762 165.461 50.1295C166.222 50.3186 166.93 47.8465 167.877 46.5839C168.163 46.204 168.578 46.0597 169.062 45.9452C169.709 45.792 170.258 45.9549 170.59 46.1707C171.73 46.9106 172.808 48.3754 173.361 48.9247C173.5 49.0618 173.649 49.1936 173.785 49.0057C174.78 47.6309 174.839 46.1604 175.336 45.7475C176.593 44.7035 180.265 45.9819 182.125 46.3321C182.716 46.4435 182.62 46.1473 182.32 45.5294C180.631 42.0451 180.053 39.9122 180.114 39.3927C180.254 38.1986 182.469 38.2414 183.112 37.959C184.16 37.4991 180.966 35.0601 180.523 34.2145C180.444 34.0653 180.507 33.8593 180.563 33.6917C181.073 32.1679 183.065 30.8994 183.006 30.5319C182.848 29.5479 180.949 29.1005 180.25 28.6557C179.363 28.092 181.459 26.2438 181.493 25.5624C181.503 25.3561 181.428 25.1129 181.451 24.9074C181.539 24.1293 182.375 23.9497 182.509 23.6508C182.53 23.3103 182.444 22.9654 182.301 22.652C182.225 22.4982 182.142 22.3554 182.02 22.0814" stroke="#E3A72D" stroke-linecap="round"/>
</svg>
