<svg width="226" height="181" viewBox="0 0 226 181" fill="none" xmlns="http://www.w3.org/2000/svg">
<path d="M40.6254 0.533081C39.013 0.533081 34.8925 1.34443 31.8683 3.82679C30.2009 5.19546 28.5782 7.26048 27.1258 8.83513C26.5605 9.44802 26.6241 10.6319 26.8627 11.7231C27.3238 13.8314 30.5341 12.9786 31.3238 13.3629C32.9816 14.1695 33.2637 17.1752 34.0072 19.5479C35.5694 24.533 35.9 36.1718 36.0933 40.5264C36.2204 43.3886 37.7313 46.4442 39.2596 48.4701C40.4349 50.0281 42.1603 51.9568 43.9507 54.0075C45.6559 55.9607 47.007 57.6298 48.4257 58.9856C48.8333 59.3752 49.2403 59.8965 49.127 60.0867C48.1101 61.7943 44.3694 58.6966 41.5656 57.7392C39.2256 56.9401 36.8399 55.5364 34.9308 54.786C32.6384 53.8848 29.608 53.0715 27.8047 52.0983C26.0464 51.1494 26.3913 47.8555 25.0039 41.5609C23.6042 35.2105 21.6586 31.9289 17.7664 25.7681C15.123 21.5841 12.6455 18.4601 10.7802 16.7934C8.23244 14.517 4.43746 13.7455 2.39729 13.7167C0.225264 13.6861 0.529579 17.1095 0.500611 21.6251C0.486144 23.8802 2.89707 24.7692 6.00938 26.4625C7.23077 27.1271 7.8928 28.0287 8.50529 28.8123C9.66234 30.2926 9.74329 40.3342 10.1181 48.6625C10.2631 51.8833 11.4548 55.3643 12.3174 57.6304C13.0387 59.5254 14.9422 60.6501 16.8021 61.8524C18.512 62.9577 21.1606 64.4047 23.1494 65.8741C25.4221 67.5532 27.8258 70.8611 29.9682 72.9639C31.3654 74.7163 32.255 75.8923 32.8451 76.6508C33.1738 77.037 33.562 77.4257 34.8069 78.411M39.5038 0.5C40.1079 0.5 42.094 0.808357 43.6393 2.11238C45.3795 3.5808 45.1394 5.96216 45.4625 7.79406C45.804 9.73004 45.8205 14.3173 46.2114 18.3682C46.4586 20.9307 49.239 28.1668 50.6172 32.0697C51.2343 33.8173 51.1666 35.6063 51.3644 38.581C51.4968 40.5736 53.7032 41.9132 56.1478 43.1688C58.0101 43.9314 59.6749 44.7877 62.2556 46.6069C63.083 47.1629 64.054 47.7529 66.1429 48.8461M125.021 16.3834C124.034 16.3834 121.416 16.0948 114.894 14.4308C111.75 13.6286 108.468 13.3458 99.9287 12.9909C95.5309 12.8081 89.6082 15.9102 83.7193 18.1834C79.986 19.6245 76.6493 22.0776 74.1809 25.4275C72.1224 28.2211 70.8055 30.2327 69.2636 32.0437C66.8561 34.8715 66.6382 37.1307 66.5093 39.0637C66.488 39.5277 66.4453 39.9859 66.4012 41.7806C66.3571 43.5754 66.3128 46.6928 66.2672 49.9048M66.2043 48.2314C66.2043 50.3756 65.9856 55.7613 65.3521 57.9175C64.1575 61.9833 60.7864 66.1701 58.3576 68.0214C55.7963 69.9737 52.0374 71.6067 50.3525 73.1718C47.83 75.515 46.667 77.3956 44.6578 78.1075C42.8853 78.7356 40.5546 78.8616 38.2366 79.191C36.3954 79.4055 31.6567 79.5346 28.1854 79.3556C27.5379 79.3207 26.6855 79.3207 25.4346 79.0606M82.0496 77.5959C81.5373 77.6156 79.7749 78.0558 77.002 79.7983C69.2696 84.6573 66.206 87.9872 64.141 89.5841C61.6411 91.5175 53.1595 94.5212 47.5122 96.6129C46.4764 96.805 45.3976 96.904 43.7883 96.9883C42.7898 97.031 41.422 97.0737 40.0128 97.1176M54.6565 93.2972C50.7321 93.2972 41.8976 93.0293 40.027 92.3399C37.5754 91.4363 35.343 89.3546 33.4156 87.9951C31.8584 87.0209 30.4548 86.2147 29.4912 85.7234C28.9977 85.4705 28.4953 85.2102 27.7125 84.7665M53.1273 97.5616C54.1835 97.5496 57.1573 97.2748 59.6719 96.659C61.728 96.1555 65.2858 96.3224 68.2262 96.1906C70.1673 96.1036 72.2728 94.9872 74.3113 94.0767C76.6572 93.029 78.2905 91.8317 80.969 90.1728C83.5782 88.5568 85.7461 84.9944 87.4965 82.215C88.7454 80.4293 89.6695 78.9936 90.3484 78.0888C90.6938 77.5607 91.0409 76.8926 91.7913 75.7404M63.2271 97.9327C66.6299 97.9327 74.4579 98.0169 78.0872 98.179C81.7235 98.3414 84.5462 96.6553 88.2454 93.7751C94.7667 88.6977 95.9424 85.6778 97.4659 83.3257C99.7721 79.7655 100.648 78.2819 102.362 74.6335C104.204 70.7115 106.497 66.2344 107.79 63.0001C108.621 60.9189 108.94 58.4564 109.739 55.2936C110.461 52.4351 111.503 50.8537 112.196 48.9835C113.096 46.5534 115.112 43.7066 117.73 40.673C119.53 38.5878 121.948 37.2056 123.865 35.3667C125.728 33.5807 127.42 31.8501 128.906 30.5426C129.566 29.9669 130.255 29.2043 130.882 28.2981C131.153 27.8615 131.325 27.4722 131.575 26.8856M126.693 16.1399C130.81 16.1399 140.041 16.4067 142.853 17.5588C147.995 19.6661 152.145 22.3171 154.016 23.7698C156.301 25.5437 157.36 27.1831 158.873 28.8462C160.395 30.5192 161.964 32.6353 163.798 34.9546C165.443 37.0363 166.221 39.8887 167.252 42.8749C168.107 45.3529 168.069 47.7594 168.278 53.5329C168.398 56.8445 168.604 64.3047 168.134 70.3315C167.62 72.6517 167.209 74.2373 166.931 75.1768C166.771 75.6329 166.572 76.0474 165.605 77.0724M130.306 30.4178C131.895 30.4178 137.468 31.04 140.055 31.7076C142.649 32.3772 146.166 34.9498 148.108 36.4303C149.905 37.8001 151.513 39.3051 154.059 41.6228C155.963 43.3557 157.633 45.8222 159.515 49.3899C160.98 52.1686 162.254 55.3699 163.235 57.4491C164.394 59.9031 164.26 62.97 164.565 64.9825C164.877 67.0435 165.224 69.1908 166.03 70.8279C166.207 71.2309 166.303 71.642 166.353 72.5832C166.402 73.5243 166.402 74.983 166.402 76.4859M166.932 80.6808C166.35 80.6808 164.228 81.0318 162.691 82.1161C160.895 83.3842 160.594 86.9596 159.04 90.3654C158.17 92.272 156.641 93.4876 155.317 94.6639C153.289 95.7772 151.826 96.5121 150.942 96.8806C150.463 97.0692 149.922 97.2611 148.719 97.5135M148.191 97.5136C148.908 98.0729 150.978 99.6805 152.487 100.812C154.165 102.07 157.186 102.834 160.473 103.401C163.811 103.977 166.443 103.266 167.246 102.833C168.02 102.417 168.523 101.328 169.005 100.126C169.863 97.9874 168.628 95.7939 168.358 93.6678C167.953 90.4641 168.612 88.4693 169.011 85.5723C169.28 83.0179 169.321 81.6295 168.977 80.905C168.718 80.5988 168.286 80.4173 167.007 80.212M165.918 77.2083V77.6497C165.918 78.0594 165.918 78.8626 165.766 79.9436M154.564 95.6211C154.564 95.648 154.45 95.8303 154.232 96.1753C154.128 96.3518 154.037 96.5314 153.944 96.7115C153.85 96.8916 153.757 97.0667 153.596 97.4884M91.052 92.3281C91.0655 92.3281 91.2663 92.426 92.2018 93.0003C94.2655 94.2672 96.8908 95.8961 99.2848 97.142C102.045 98.5784 102.917 99.0279 106.786 100.653C108.273 101.278 110.284 101.67 112.668 101.99C115.052 102.311 117.793 102.43 119.662 102.542C121.531 102.653 122.444 102.754 123.908 102.806C125.372 102.859 127.359 102.859 129.489 102.681C131.62 102.504 133.833 102.148 135.704 101.789C140.805 100.809 141.938 100.423 142.89 100.131C144.033 99.7817 145.227 99.3331 146.125 99.0246C146.579 98.8311 147.047 98.573 147.494 98.2934C147.72 98.1566 147.944 98.0304 148.472 97.7394M109.892 64.0653C109.898 64.7625 110.2 66.6172 110.971 68.1252C111.931 70.0029 113.875 71.3596 115.457 72.3221C117.629 73.6429 120.387 73.407 122.346 73.1904C123.899 73.0186 125.659 71.5397 126.774 70.2671C127.51 69.2133 128.366 67.9413 129.098 66.8425C129.375 66.4115 129.46 66.2372 129.548 66.0577M110.51 63.6014C110.558 63.3708 111.21 62.4222 112.289 61.5818C113.99 60.2574 115.798 59.7605 116.853 59.4359C117.9 59.1138 120.358 59.1583 121.883 59.2877C122.766 59.3627 123.749 60.7034 124.488 61.6725C125.2 62.6064 125.757 63.5983 126.121 64.3385C126.218 64.5532 126.328 64.8181 126.418 65.0554C126.508 65.2927 126.574 65.4943 126.742 65.9769M117.646 60.5951C117.646 61.2798 117.291 63.5011 116.911 64.6551C116.628 65.5152 116.706 66.3885 116.751 69.0966C116.781 70.9074 117.956 71.5151 118.488 71.9265C118.723 72.1082 117.74 71.8528 117.391 71.6011C116.33 70.8374 115.564 69.065 115.292 68.1137C114.845 66.5555 115.267 64.0372 115.546 62.5594C115.701 62.0563 115.94 61.6897 116.272 61.3706C116.441 61.2377 116.612 61.1639 116.838 61.0872M118.392 61.0873C118.473 61.2866 118.851 62.203 119.29 62.9448C119.758 63.7341 120.445 64.6017 120.701 66.0288C121.324 69.4968 120.598 70.368 120.278 71.3622C120.203 71.5959 120.059 71.7534 120.118 71.8139C120.325 72.0265 120.801 71.6275 121.067 71.3262C121.696 70.6132 121.724 69.2822 121.77 68.1581C121.846 66.2794 121.706 63.744 121.185 62.5157C120.933 62.1202 120.651 61.8547 120.201 61.6226C119.914 61.5019 119.506 61.3753 118.763 60.9382M118.763 60.7856C118.763 61.3125 118.611 62.789 118.254 63.6193C117.809 64.6526 117.572 65.3403 117.559 67.5354C117.837 68.6587 118.185 69.4767 118.68 70.0514C118.823 70.1772 118.973 70.2986 119.534 70.7428M144.363 66.7425C144.371 65.721 144.517 63.2913 145.523 61.7526C146.744 59.8842 149.286 58.7239 151.16 58.0632C152.383 57.632 154.564 57.7035 156.977 57.7848C159.609 58.5316 160.602 59.1925 161.552 60.1031C161.83 60.4064 162.146 60.7816 162.736 61.6293M163.113 63.0354C163.113 63.6831 162.953 65.5247 161.979 67.5594C161.344 68.8885 160.49 69.8688 159.788 70.7934C158.951 71.8952 158.163 72.2338 157.051 72.4298C154.055 72.9578 152.199 71.6474 150.399 70.6325C149.401 69.8854 148.53 68.9819 147.81 68.2222L147.8 68.2127C147.66 68.0726 147.514 67.9274 147.143 67.4399M152.809 58.4867C152.71 58.7507 152.317 59.964 151.926 61.2812C151.118 64.004 151.672 67.0576 152.132 68.4334C152.467 69.437 153.746 70.2445 154.738 70.779C155.532 71.207 156.343 71.1197 157.452 71.0673C158.327 71.026 158.609 69.4146 158.926 68.4188C159.001 68.214 159.078 68.0426 159.149 67.8334C159.219 67.6242 159.282 67.3824 159.435 66.7403C159.304 66.8839 158.486 67.302 156.944 67.3367C156.636 67.3437 156.543 67.1014 156.49 66.9262C156.256 66.155 156.921 65.302 157.372 64.2122C157.661 63.5131 157.615 62.7858 157.54 62.281C157.413 61.428 155.962 61.1055 155.142 60.4167C154.901 60.2145 154.669 59.8784 154.488 59.8196C154.308 59.7609 154.212 59.9616 154.195 60.2044C154.167 60.5812 154.246 60.9474 154.278 61.2731M154.278 61.2731C154.291 61.3988 154.296 61.5185 154.286 61.6304C154.208 62.4782 153.353 63.2228 153.242 64.3422C153.129 65.4697 153.347 66.2088 153.66 66.9294M154.278 61.2731C154.134 61.1952 153.984 61.1247 153.83 61.0637C153.641 60.9887 153.421 60.9625 153.305 61.0898C153.064 61.3554 152.822 61.715 152.788 62.1348C152.659 63.7298 152.613 66.3219 153.318 66.7556C153.427 66.8227 153.542 66.8779 153.66 66.9294M154.278 61.2731C154.923 61.621 155.468 62.115 155.906 62.5631C156.044 63.3174 156.169 64.081 156.067 64.8795C156.036 65.1364 156.036 65.4686 156.035 65.8109M153.66 66.9294C153.78 67.2072 153.914 67.4821 154.049 67.7755C154.669 69.1294 155.463 69.6996 156.177 70.0803C156.381 70.1891 156.685 70.1472 156.901 70.0871C157.291 69.9782 157.503 69.5979 157.576 69.3083C157.654 68.9991 156.806 68.9416 156.149 68.861C155.353 68.7635 155.17 67.6774 154.346 67.2344C154.114 67.1099 153.881 67.0262 153.66 66.9294ZM153.987 59.0984C154.218 59.1047 154.974 59.438 155.744 59.8755C156.683 60.4089 157.412 60.6331 158.273 61.1723C159.066 61.669 159.238 62.5336 159.361 63.295C159.545 64.0708 159.703 64.6502 159.758 65.5449C159.782 66.2266 159.797 67.3706 159.812 68.5493M155.404 64.807V64.8288M154.766 64.8696V66.6933M80.0651 97.4534C80.0651 97.5491 80.0651 99.3039 80.2737 102.847C80.7501 110.934 83.9356 115.939 84.808 117.289C85.897 118.974 86.9738 120.297 89.0251 123.568C89.6319 124.535 90.0695 125.054 90.2024 125.503C90.2538 125.676 89.8231 125.729 89.6901 125.944C89.3788 126.446 89.836 127.197 90.183 127.757C90.9148 128.937 93.0042 129.91 95.9181 130.999C97.6651 131.653 100.847 132.846 106.124 135.769C108.073 136.848 110.692 136.958 112.469 136.564C113.774 136.274 113.611 134.031 113.543 131.857C113.499 130.477 110.843 129.848 109.394 128.997C108.222 128.309 107.084 127.129 106.004 126.087C105.058 125.174 104.472 123.952 102.425 121.009C100.587 118.783 99.0179 117.078 97.9516 115.532C97.7793 115.213 97.6394 114.921 97.4534 114.579M93.7024 94.0538C93.7024 96.0629 93.8476 100.554 94.3124 102.259C94.7312 103.796 95.5308 105.534 96.0629 106.911C96.6212 108.355 96.7316 109.776 96.9103 111.111C96.971 111.828 97.0563 112.544 97.1784 113.225C97.2453 113.573 97.3224 113.927 97.446 114.552M82.9189 114.101C84.3883 114.101 89.8492 114.158 92.2941 113.665C93.7414 112.749 94.491 112.166 94.988 111.77C95.2336 111.562 95.4655 111.34 96.3719 110.69M107.608 112.523C107.656 112.523 109.169 112.523 111.552 112.636C112.452 112.678 112.698 112.975 112.828 114.103C113.566 120.474 113.796 123.88 113.994 125.644C114.074 126.508 114.165 127.337 114.284 128.162C114.347 128.607 114.413 129.105 114.564 129.906M107.855 113.302C107.855 115.541 107.912 122.321 108.103 124.745C108.171 125.258 108.259 125.909 108.339 126.41C108.419 126.91 108.487 127.241 108.558 127.823M110.986 137.585C110.986 138.138 111.269 139.822 112.069 140.99C113.221 142.672 114.221 143.743 114.54 143.823C118.211 144.739 115.033 135.609 114.749 134.236C114.712 133.88 114.699 133.504 114.679 132.724C114.658 131.944 114.631 130.771 114.602 129.563M114.209 141.461C114.257 141.461 114.672 141.461 115.3 141.622C115.577 141.693 115.608 142.104 115.485 142.295C115.362 142.487 115.042 142.539 114.761 142.374C114.113 141.994 113.824 141.074 113.703 140.498C113.767 140.278 114.083 140.204 114.46 140.166C114.837 140.128 115.265 140.128 115.791 140.166M75.6615 99.1556C75.0626 99.1694 71.4324 100.156 67.8905 101.771C65.2204 102.988 62.1499 105.562 58.8433 108.109C53.7713 112.015 51.4754 112.743 50.1746 113.513C48.5396 114.331 47.3068 114.856 46.2104 115.713C45.9346 115.916 45.6478 116.075 45.2688 116.245M45.1901 116.245C45.2217 116.721 48.2799 122.189 54.0607 128.898C56.3607 131.568 60.9049 135.156 64.4494 138.068C67.9939 140.98 70.6772 142.842 73.1617 144.782C77.9689 148.535 81.2256 152.061 83.7847 155.052C86.8765 158.666 90.1694 162.353 92.5028 165.489C95.6786 169.757 100.572 172.002 102.715 173.449C103.326 173.819 103.939 174.158 104.397 174.423C104.854 174.689 105.138 174.87 105.43 175.057M170.121 82.7148C170.157 82.7266 170.193 82.7384 174.268 86.33C178.343 89.9216 186.456 97.0926 190.972 101.007C196.09 105.445 197.51 106.115 201.353 108.227C204.566 109.994 210.231 113.371 213.602 115.433C219.223 118.871 220.939 120.518 222.577 122.027C223.403 123.254 223.907 124.181 224.235 125C224.407 125.47 224.591 126.048 224.78 126.644M116.276 179.674C116.441 179.674 118.655 179.624 123.441 179.318C129.256 178.945 134.282 177.496 137.698 176.208C140.629 175.104 142.62 173.618 144.79 171.702C148.372 168.537 151.511 164.738 154.114 162.143C158.543 157.729 163.049 156.492 166.878 155.289C169.74 154.391 174.533 153.12 177.975 152.006C181.417 150.891 183.38 150.024 186.86 148.066C190.34 146.107 195.277 143.083 199.162 140.927C208.683 135.644 210.169 134.983 210.977 133.873C211.184 133.54 211.406 133.149 211.536 132.31C211.667 131.471 211.701 130.198 211.735 128.886M107.873 80.8192C108.029 80.8935 108.793 81.4562 109.388 81.8516C110.162 82.3661 110.776 79.9609 110.979 79.8987C111.575 79.7168 111.724 81.1831 112.048 81.8829C112.115 82.0282 112.224 82.1161 112.428 81.8349C113.062 80.9626 113.341 80.0903 113.514 79.9378C113.597 79.8652 113.755 79.9499 113.863 80.0516C114.093 80.2673 114.208 80.6877 114.407 80.953C114.577 81.1799 114.957 80.6484 115.226 80.5862C115.365 80.5835 115.508 80.6396 115.625 80.7334C115.743 80.8272 115.83 80.957 116 81.1803M157.175 77.0607C157.417 77.308 157.983 77.8648 158.209 77.9781C158.321 78.0342 158.467 77.9778 158.583 77.8811C158.84 77.6678 159.024 77.0963 159.294 76.5725C159.392 76.3815 159.558 76.437 159.686 76.5471C159.814 76.6573 159.937 76.8445 160.066 76.9315C160.195 77.0184 160.326 76.9994 160.443 76.8979C160.56 76.7964 160.658 76.613 160.772 76.5418C160.978 76.4134 161.28 76.5582 161.521 76.4935C161.626 76.4355 161.698 76.3267 161.768 76.2039C161.838 76.0811 161.904 75.9476 162.017 75.7645" stroke="black" stroke-linecap="round"/>
</svg>
