<svg width="22" height="22" viewBox="0 0 22 22" fill="none" xmlns="http://www.w3.org/2000/svg">
<path d="M10.75 0.75V3.25M17.8211 3.67889L16.0533 5.44667M20.75 10.75H18.25M17.8211 17.8211L16.0533 16.0533M10.75 18.25V20.75M5.44667 16.0533L3.67889 17.8211M3.25 10.75H0.75M5.44667 5.44667L3.67889 3.67889M14.9167 10.75C14.9167 11.8551 14.4777 12.9149 13.6963 13.6963C12.9149 14.4777 11.8551 14.9167 10.75 14.9167C9.64493 14.9167 8.58512 14.4777 7.80372 13.6963C7.02232 12.9149 6.58333 11.8551 6.58333 10.75C6.58333 9.64493 7.02232 8.58512 7.80372 7.80372C8.58512 7.02232 9.64493 6.58333 10.75 6.58333C11.8551 6.58333 12.9149 7.02232 13.6963 7.80372C14.4777 8.58512 14.9167 9.64493 14.9167 10.75Z" stroke="#545454" stroke-width="1.5" stroke-linecap="round" stroke-linejoin="round"/>
</svg>
